<svg width="94" height="84" viewBox="0 0 94 84" fill="none" xmlns="http://www.w3.org/2000/svg">
<path d="M14.0783 25.5843C11.7899 26.1439 12.0659 24.7758 12.3947 24.0776C19.0968 9.84668 33.541 0 50.279 0C59.7014 0 68.3968 3.12035 75.3935 8.38661C76.0591 8.88762 76.6842 9.32425 76.7167 9.91091C76.7492 10.4976 76.2023 11.0505 76.034 11.2472C74.4483 13.1013 73.8293 13.6645 73.1409 14.4412C72.4525 15.2179 72.1743 15.5642 71.2879 15.7123C70.4015 15.8605 70.0326 15.435 69.6769 15.1575C64.1897 10.8757 57.9097 9.03277 50.279 9.03277C39.017 9.03277 29.0781 14.7126 23.1566 23.3711C22.7836 23.9164 21.6475 24.6889 18.99 24.6889C17.2411 24.9128 15.6039 25.2112 14.0783 25.5843ZM23.5032 61.5769C23.9374 61.5756 24.3006 62.1123 24.6917 62.6018C30.714 70.1399 39.972 74.9672 50.3545 74.9672C68.504 74.9672 83.2172 60.2158 83.2172 42.0189C83.2172 40.9591 83.1673 39.9109 83.0697 38.8767C82.9842 37.9712 83.4156 36.4591 83.8141 35.7314C84.9599 33.6393 86.6873 30.848 87.9373 28.9683C88.5521 28.0437 88.8004 27.6396 89.206 27.7459C89.6116 27.8521 90.1072 28.7725 90.3399 29.5218C91.5659 33.4693 92.2265 37.6668 92.2265 42.0189C92.2265 65.2044 73.4798 84 50.3545 84C37.9633 84 26.8292 78.6035 19.1627 70.0268C18.8137 69.6363 18.6464 69.4655 18.6219 68.8583C18.5974 68.2511 18.9083 67.7359 19.2616 67.2319C20.6938 65.1886 21.7736 63.648 22.5011 62.61C23.068 61.8014 23.0691 61.5781 23.5032 61.5769ZM53.6546 62.1099C51.8944 64.3992 47.9015 66.3482 42.0364 61.0884C37.1042 56.6653 17.1658 41.352 11.3588 34.899C10.2604 33.6784 9.81947 31.6689 11.7441 30.9743C17.6495 28.8428 20.8423 31.4505 41.471 42.5175C46.7186 44.5131 47.7461 43.9346 55.9787 37.2936C64.2114 30.6526 85.592 8.65495 90.1323 6.35089C93.1809 4.80381 94.6898 8.30673 93.6961 10.2402C79.328 34.5547 55.2287 61.3021 53.6546 62.1099ZM9.3469 39.5319C10.6963 40.1186 20.943 48.7489 21.0664 51.2237C21.1898 53.6986 16.775 59.5874 13.5377 63.9692C11.0693 67.3103 1.40983 79.9737 0.17706 77.5727C-1.05571 75.1717 4.44673 55.1615 7.46062 42.5709C8.00086 40.314 7.99746 38.9451 9.3469 39.5319Z" fill="currentColor"/>
</svg>

