<svg width="266" height="435" viewBox="0 0 266 435" fill="none" xmlns="http://www.w3.org/2000/svg">
<g filter="url(#filter0_d_323_2617)">
<path d="M84.4625 61.9715C88.857 65.5055 91.4902 71.4072 91.4902 77.7213V323.981C91.4902 330.296 94.1245 336.197 98.519 339.731L116.585 353.725C119.222 355.845 120.801 359.387 120.801 363.175V399.577C120.801 408.717 112.223 414.143 105.862 409.026L23.7168 339.731C21.0799 337.611 19.5 334.069 19.5 330.281V27.4227C19.5 18.2838 28.0781 12.8576 34.4395 17.973L84.4625 61.9715Z" fill="currentColor" fill-opacity="0.8"/>
<path d="M141.461 100.758C141.461 94.4447 144.094 88.5427 148.49 85.0086L231.561 18.2071C237.922 13.0917 246.5 18.5179 246.5 27.6569V98.4148C246.5 102.203 244.92 105.744 242.284 107.865L188.459 151.146C185.822 153.267 184.242 156.807 184.242 160.596V215.216C173.728 219.121 166.236 229.271 166.236 241.175C166.236 256.46 178.589 268.851 193.826 268.851C209.064 268.851 221.417 256.46 221.417 241.175C221.417 229.147 213.766 218.91 203.079 215.095V170.397C203.079 166.609 204.66 163.067 207.297 160.948L241.521 134.438C243.64 132.733 246.5 134.542 246.5 137.588V330.516C246.5 334.304 244.92 337.844 242.284 339.965L156.4 409.027C150.039 414.143 141.461 408.717 141.461 399.577V100.758Z" fill="currentColor" fill-opacity="0.8"/>
</g>
<defs>
<filter id="filter0_d_323_2617" x="0.4" y="0.9" width="265.2" height="433.2" filterUnits="userSpaceOnUse" color-interpolation-filters="sRGB">
<feFlood flood-opacity="0" result="BackgroundImageFix"/>
<feColorMatrix in="SourceAlpha" type="matrix" values="0 0 0 0 0 0 0 0 0 0 0 0 0 0 0 0 0 0 127 0" result="hardAlpha"/>
<feOffset dy="4"/>
<feGaussianBlur stdDeviation="9.55"/>
<feComposite in2="hardAlpha" operator="out"/>
<feColorMatrix type="matrix" values="0 0 0 0 0.0837426 0 0 0 0 0.145298 0 0 0 0 0.412037 0 0 0 0.68 0"/>
<feBlend mode="normal" in2="BackgroundImageFix" result="effect1_dropShadow_323_2617"/>
<feBlend mode="normal" in="SourceGraphic" in2="effect1_dropShadow_323_2617" result="shape"/>
</filter>
</defs>
</svg>

