<svg width="163" height="44" viewBox="0 0 163 44" fill="none" xmlns="http://www.w3.org/2000/svg">
<g>
<path d="M155.723 6.32119C160.808 6.32119 163 7.23812 163 10.317C163 13.6291 162.44 17.3486 162.139 22.0173C161.946 25.017 161.755 27.1812 162.139 30.1625C162.524 33.1513 163 34.7306 163 37.2963C163 40.7017 160.388 42.9409 155.49 42.9409C151.384 42.9409 148.585 41.1215 148.585 38.136C148.585 33.4711 148.585 31.8169 148.585 31.8169C148.585 31.8169 148.95 22.1927 148.14 19.3447C147.368 16.6298 146.543 12.976 146.543 10.317C146.543 7.37807 151.851 6.32119 155.723 6.32119Z" fill="currentColor"/>
<path d="M131.504 6.78766C140.18 6.78766 140.554 15.5111 141.953 19.9894L144.985 29.9257C145.778 32.3981 147.271 34.6839 147.271 37.2496C147.271 40.8883 143.306 42.521 138.688 42.521C131.084 42.521 131.27 38.3226 131.27 34.1708C131.27 32.3515 131.83 30.6254 131.83 28.8061C131.83 27.9198 131.55 26.8468 129.918 26.8468C128.238 26.8468 126.316 28.4242 126.316 29.4505C126.316 32.2494 129.265 34.9638 129.265 37.9494C129.265 41.5414 127.492 43.0341 122.267 43.0341C117.882 43.0341 118.116 40.3606 118.116 37.4683C118.116 32.85 119.027 25.4415 119.027 25.4415C119.027 25.4415 119.047 15.1889 120.12 11.4103C121.007 8.09822 126.046 6.78766 131.504 6.78766ZM127.818 21.9953C127.818 22.6018 128.565 22.7417 129.265 22.7417C130.104 22.7417 130.944 22.4618 130.944 21.7621C130.944 21.1556 131.876 14.1392 128.867 14.3259C125.85 14.5131 127.818 21.1556 127.818 21.9953Z" fill="currentColor"/>
<path d="M93.9411 6.36783C101.358 6.36783 100.192 11.3593 100.192 14.9979C100.192 15.1379 100.332 15.2778 100.519 15.2778C100.892 15.2778 101.638 14.6714 101.825 14.4382C103.737 12.1057 103.924 7.20752 107.376 7.20752C110.455 7.20752 113.441 9.67993 113.441 11.8258C113.441 14.858 107.376 19.5331 107.376 20.886C107.376 22.0522 110.615 22.4318 112.103 24.0946C113.478 25.6324 114.654 28.7216 114.654 28.7216C114.654 28.7216 116.476 32.8646 116.476 37.9494C116.476 40.2819 113.677 41.7746 110.598 41.7746C109.105 41.7746 107.473 41.4947 106.4 40.655C103.461 38.3226 102.665 30.0657 101.358 26.427C101.218 26.1005 100.519 24.7476 100.052 24.701L99.8189 24.8876C99.7256 24.9809 99.5857 25.2608 99.5857 25.3074V29.8324C99.5857 32.2115 101.545 34.404 101.545 36.6899C101.545 40.2352 99.3991 42.9875 93.9878 42.9875C89.6961 42.9875 87.1303 40.9349 87.1303 37.9494C87.1303 33.3778 88.8097 28.6662 88.8097 24.0946V18.1526C88.8097 15.5402 91.6934 15.5271 91.6934 12.8681C91.6934 10.0225 90.0226 6.36783 93.9411 6.36783Z" fill="currentColor"/>
<path d="M68.8149 0.791773C71.8471 0.791773 73.1066 3.03094 73.1066 4.85026C73.1066 6.99613 72.5935 9.23529 72.5935 11.3812C72.5935 12.6407 72.5935 16.6525 75.1125 16.6525C77.0718 16.6525 77.0251 13.7603 77.0251 12.8273C77.0251 9.93503 76.2321 7.13607 76.2321 4.24382C76.2321 2.19125 78.8426 1.27911 81.1303 0.838422C85.5862 -0.0199504 87.8667 -2.43867 89.8712 8.49474C91.8756 19.4282 84.8529 12.8054 84.9929 14.5314C85.3194 18.7299 85.8326 22.9283 85.8326 27.1268C85.8326 33.3311 87.319 44.231 73.4705 43.1275C59.622 42.0239 61.3417 32.3515 61.3417 32.3515L60.8752 18.8698C60.8285 16.724 52.3331 22.526 52.3331 13.7792C51.2398 -2.25646 54.8843 5.76138 68.8149 0.791773Z" fill="currentColor"/>
<path d="M45.6464 7.20751C49.2384 7.20751 51.0575 6.18269 51.0575 9.58809C51.0575 10.7543 50.2555 13.9673 48.2963 13.9673H46.6258C46.6258 13.9673 41.4991 13.0971 41.4991 15.1519C41.4991 21.2373 51.4945 12.278 51.798 18.072C52.1015 23.866 45.2084 19.3772 44.6248 22.6668C44.2886 24.5625 44.0281 24.9311 45.1801 26.4737C47.9187 30.1408 51.479 19.1635 55.5592 21.2373C58.2403 22.6 59.2576 26.1267 59.2576 27.9927C59.2576 35.4099 58.7548 42.7076 45.693 42.7076C39.6286 42.7076 33.8908 41.0282 33.8908 36.0368C33.8908 32.8646 34.5905 29.6458 34.5905 26.4737C34.5905 21.6221 33.2377 16.7706 33.2377 11.9191C33.2377 7.8606 41.5879 7.20751 45.6464 7.20751Z" fill="currentColor"/>
<path d="M26.8606 6.08794C30.7325 6.08794 31.9453 8.2338 31.9453 10.6129C31.9453 12.6655 31.5721 14.6714 31.4322 16.6773C31.2922 18.8698 31.2456 21.0624 31.2456 23.2549C31.2456 27.0801 31.8987 30.8587 31.8987 34.6839C31.8987 38.7891 31.5721 43.1275 24.2016 43.1275C16.2712 43.1275 18.9861 34.6839 18.4395 31.4549C17.8928 28.2259 17.391 26.034 15.5239 23.6193C15.2398 23.2519 15.0958 23.0203 14.7309 22.733C12.9064 21.2965 13.8921 28.6195 13.8921 28.6195C13.8921 28.6195 15.9446 36.0368 15.9446 39.7687C15.9446 42.1012 13.8921 42.9875 10.8132 42.9875C6.80139 42.9875 0 40.7483 0 38.136C0 35.5236 0.979635 32.8646 1.16623 30.2523C1.67937 23.7214 1.49278 17.1438 1.49278 10.6129C1.49276 6.08794 8.10757 6.64773 11.7929 6.64773C18.557 6.64773 23.6884 19.7926 25.364 19.4282C27.0395 19.0637 24.3818 15.533 23.6884 14.0183C22.9951 12.5037 21.7496 10.74 22.5688 8.84024C23.3572 7.01191 24.3882 6.08794 26.8606 6.08794Z" fill="currentColor"/>
</g>
</svg>

