<svg width="64" height="64" viewBox="0 0 64 64" fill="none" xmlns="http://www.w3.org/2000/svg">
<path d="M8 16H56V20H8V16Z" fill="currentColor"/>
<path d="M8 24H56V28H8V24Z" fill="currentColor"/>
<path d="M8 32H56V36H8V32Z" fill="currentColor"/>
<path d="M8 40H56V44H8V40Z" fill="currentColor"/>
<path d="M8 48H56V52H8V48Z" fill="currentColor"/>
<rect x="12" y="12" width="8" height="8" fill="currentColor"/>
<rect x="12" y="20" width="8" height="8" fill="currentColor"/>
<rect x="12" y="28" width="8" height="8" fill="currentColor"/>
<rect x="12" y="36" width="8" height="8" fill="currentColor"/>
<rect x="12" y="44" width="8" height="8" fill="currentColor"/>
<path d="M32 8L40 16H36V24H28V16H24L32 8Z" fill="currentColor"/>
<path d="M32 56L24 48H28V40H36V48H40L32 56Z" fill="currentColor"/>
</svg>

